<mxfile host="app.diagrams.net" modified="2023-03-23T12:24:07.674Z" agent="5.0 (Windows NT 10.0; Win64; x64) AppleWebKit/537.36 (KHTML, like Gecko) Chrome/111.0.0.0 Safari/537.36" etag="30I9RJ6M2iJphgJjNZW8" version="21.0.8" type="github">
  <diagram name="Strona-1" id="SmXmTr8FHlk7qwIWHw5G">
    <mxGraphModel dx="1434" dy="796" grid="1" gridSize="10" guides="1" tooltips="1" connect="1" arrows="1" fold="1" page="1" pageScale="1" pageWidth="850" pageHeight="1100" math="0" shadow="0">
      <root>
        <mxCell id="0" />
        <mxCell id="1" parent="0" />
        <mxCell id="b4N82rZmwaYMf7kxOz5H-4" style="edgeStyle=orthogonalEdgeStyle;rounded=0;orthogonalLoop=1;jettySize=auto;html=1;entryX=0.5;entryY=0;entryDx=0;entryDy=0;" edge="1" parent="1" source="b4N82rZmwaYMf7kxOz5H-1" target="b4N82rZmwaYMf7kxOz5H-3">
          <mxGeometry relative="1" as="geometry" />
        </mxCell>
        <mxCell id="b4N82rZmwaYMf7kxOz5H-1" value="&lt;font style=&quot;font-size: 24px;&quot;&gt;Start&lt;/font&gt;" style="ellipse;whiteSpace=wrap;html=1;" vertex="1" parent="1">
          <mxGeometry x="365" y="40" width="120" height="80" as="geometry" />
        </mxCell>
        <mxCell id="b4N82rZmwaYMf7kxOz5H-2" value="&lt;font style=&quot;font-size: 24px;&quot;&gt;Stop&lt;/font&gt;" style="ellipse;whiteSpace=wrap;html=1;" vertex="1" parent="1">
          <mxGeometry x="365" y="690" width="120" height="80" as="geometry" />
        </mxCell>
        <mxCell id="b4N82rZmwaYMf7kxOz5H-6" style="edgeStyle=orthogonalEdgeStyle;rounded=0;orthogonalLoop=1;jettySize=auto;html=1;entryX=0.5;entryY=0;entryDx=0;entryDy=0;" edge="1" parent="1" source="b4N82rZmwaYMf7kxOz5H-3" target="b4N82rZmwaYMf7kxOz5H-7">
          <mxGeometry relative="1" as="geometry">
            <mxPoint x="425" y="280" as="targetPoint" />
          </mxGeometry>
        </mxCell>
        <mxCell id="b4N82rZmwaYMf7kxOz5H-3" value="Podaj x&lt;br&gt;Podaj n&lt;br&gt;wynik=1" style="rounded=0;whiteSpace=wrap;html=1;" vertex="1" parent="1">
          <mxGeometry x="365" y="170" width="120" height="60" as="geometry" />
        </mxCell>
        <mxCell id="b4N82rZmwaYMf7kxOz5H-9" style="edgeStyle=orthogonalEdgeStyle;rounded=0;orthogonalLoop=1;jettySize=auto;html=1;entryX=1;entryY=0.5;entryDx=0;entryDy=0;" edge="1" parent="1" source="b4N82rZmwaYMf7kxOz5H-7" target="b4N82rZmwaYMf7kxOz5H-8">
          <mxGeometry relative="1" as="geometry" />
        </mxCell>
        <mxCell id="b4N82rZmwaYMf7kxOz5H-12" style="edgeStyle=orthogonalEdgeStyle;rounded=0;orthogonalLoop=1;jettySize=auto;html=1;entryX=0;entryY=0.5;entryDx=0;entryDy=0;" edge="1" parent="1" source="b4N82rZmwaYMf7kxOz5H-7" target="b4N82rZmwaYMf7kxOz5H-11">
          <mxGeometry relative="1" as="geometry" />
        </mxCell>
        <mxCell id="b4N82rZmwaYMf7kxOz5H-7" value="n&amp;gt;0" style="rhombus;whiteSpace=wrap;html=1;" vertex="1" parent="1">
          <mxGeometry x="348" y="300" width="155" height="150" as="geometry" />
        </mxCell>
        <mxCell id="b4N82rZmwaYMf7kxOz5H-10" style="edgeStyle=orthogonalEdgeStyle;rounded=0;orthogonalLoop=1;jettySize=auto;html=1;entryX=0.5;entryY=0;entryDx=0;entryDy=0;" edge="1" parent="1" source="b4N82rZmwaYMf7kxOz5H-8" target="b4N82rZmwaYMf7kxOz5H-7">
          <mxGeometry relative="1" as="geometry">
            <mxPoint x="270" y="280" as="targetPoint" />
            <Array as="points">
              <mxPoint x="210" y="280" />
              <mxPoint x="426" y="280" />
            </Array>
          </mxGeometry>
        </mxCell>
        <mxCell id="b4N82rZmwaYMf7kxOz5H-8" value="wynik=wynik*x&lt;br&gt;n-1" style="rounded=0;whiteSpace=wrap;html=1;" vertex="1" parent="1">
          <mxGeometry x="150" y="345" width="120" height="60" as="geometry" />
        </mxCell>
        <mxCell id="b4N82rZmwaYMf7kxOz5H-15" style="edgeStyle=orthogonalEdgeStyle;rounded=0;orthogonalLoop=1;jettySize=auto;html=1;entryX=1;entryY=0.5;entryDx=0;entryDy=0;" edge="1" parent="1" source="b4N82rZmwaYMf7kxOz5H-11" target="b4N82rZmwaYMf7kxOz5H-2">
          <mxGeometry relative="1" as="geometry">
            <Array as="points">
              <mxPoint x="640" y="730" />
            </Array>
          </mxGeometry>
        </mxCell>
        <mxCell id="b4N82rZmwaYMf7kxOz5H-11" value="Pokaz wynik" style="rounded=0;whiteSpace=wrap;html=1;" vertex="1" parent="1">
          <mxGeometry x="580" y="345" width="120" height="60" as="geometry" />
        </mxCell>
        <mxCell id="b4N82rZmwaYMf7kxOz5H-13" value="Tak" style="text;html=1;strokeColor=none;fillColor=none;align=center;verticalAlign=middle;whiteSpace=wrap;rounded=0;" vertex="1" parent="1">
          <mxGeometry x="288" y="330" width="60" height="30" as="geometry" />
        </mxCell>
        <mxCell id="b4N82rZmwaYMf7kxOz5H-14" value="Nie" style="text;html=1;strokeColor=none;fillColor=none;align=center;verticalAlign=middle;whiteSpace=wrap;rounded=0;" vertex="1" parent="1">
          <mxGeometry x="503" y="330" width="60" height="30" as="geometry" />
        </mxCell>
      </root>
    </mxGraphModel>
  </diagram>
</mxfile>
